<svg width="1705" height="1716" viewBox="0 0 1705 1716" fill="none" xmlns="http://www.w3.org/2000/svg">
<path fill-rule="evenodd" clip-rule="evenodd" d="M786.766 0H0V788.411H686.766C741.995 788.411 786.766 743.639 786.766 688.411V0ZM394.554 1714.83C177.295 1714.83 1.17122 1537.88 1.17122 1320.62C1.17122 1103.36 177.295 926.418 394.554 926.418C611.814 926.418 787.937 1103.36 787.937 1320.62C787.937 1537.88 611.814 1714.83 394.554 1714.83ZM1705 0H918.234V688.411C918.234 743.639 963.005 788.411 1018.23 788.411H1705V0ZM918.234 1716H1705V927.589H1018.23C963.005 927.589 918.234 972.361 918.234 1027.59V1716Z" fill="url(#paint0_linear_47_8)"/>
<defs>
<linearGradient id="paint0_linear_47_8" x1="-852.5" y1="858" x2="863.464" y2="2562.96" gradientUnits="userSpaceOnUse">
<stop stop-color="#FF8F71"/>
<stop offset="1" stop-color="#FF3E55"/>
</linearGradient>
</defs>
</svg>
