<svg width="711" height="717" viewBox="0 0 711 717" fill="none" xmlns="http://www.w3.org/2000/svg">
<path fill-rule="evenodd" clip-rule="evenodd" d="M328.094 0.979248L0.0944824 0.979248L0.0944824 328.979H228.094C283.323 328.979 328.094 284.208 328.094 228.979V0.979248ZM164.689 714.854C74.1145 714.854 0.689168 641.429 0.689168 550.854C0.689168 460.28 74.1145 386.854 164.689 386.854C255.264 386.854 328.689 460.28 328.689 550.854C328.689 641.429 255.264 714.854 164.689 714.854ZM710.261 1.88299L382.261 1.88299V229.883C382.261 285.111 427.032 329.883 482.261 329.883L710.261 329.883V1.88299ZM381.928 716.133H709.928V388.133L481.928 388.133C426.7 388.133 381.928 432.904 381.928 488.133L381.928 716.133Z" fill="url(#paint0_linear_39_2)"/>
<defs>
<linearGradient id="paint0_linear_39_2" x1="-354.989" y1="358.556" x2="360.147" y2="1068.71" gradientUnits="userSpaceOnUse">
<stop stop-color="#FF8F71"/>
<stop offset="1" stop-color="#FF3E55"/>
</linearGradient>
</defs>
</svg>
