<svg width="699" height="403" viewBox="0 0 699 403" fill="none" xmlns="http://www.w3.org/2000/svg">
<g filter="url(#filter0_d_57_32)">
<rect x="82" y="16" width="538" height="368" rx="12" fill="#535353"/>
<rect x="85" y="19" width="532" height="362" rx="10" fill="#1D1D25"/>
<rect x="99" y="32" width="506" height="335.872" rx="3" fill="url(#paint0_linear_57_32)"/>
<mask id="mask0_57_32" style="mask-type:alpha" maskUnits="userSpaceOnUse" x="99" y="32" width="506" height="336">
<rect x="99" y="32" width="506" height="335.872" rx="3" fill="white"/>
</mask>
<g mask="url(#mask0_57_32)">
<rect x="98.6753" y="92.2931" width="506" height="275.838" rx="3" fill="#F9F6F6"/>
<rect x="170.475" y="69.4595" width="106.646" height="256.541" rx="3" fill="white"/>
<rect x="295.274" y="69.4595" width="238.251" height="256.541" rx="3" fill="white"/>
<rect x="305.484" y="83.0811" width="217.83" height="60.1622" rx="3" fill="#E7E7E7"/>
<rect x="305.484" y="155.73" width="64.6682" height="60.1622" rx="3" fill="#E7E7E7"/>
<rect x="386.036" y="155.73" width="137.278" height="60.1622" rx="3" fill="#E7E7E7"/>
</g>
<rect opacity="0.0979818" x="349" width="13.6" height="3" rx="1.5" fill="#4A5166"/>
<rect opacity="0.0979818" x="365.8" width="3.2" height="3" rx="1.5" fill="#4A5166"/>
<path d="M0 383C0 381.343 1.34315 380 3 380H695.899C697.556 380 698.899 381.343 698.899 383V397.105H0V383Z" fill="#52526F"/>
<mask id="mask1_57_32" style="mask-type:alpha" maskUnits="userSpaceOnUse" x="0" y="380" width="699" height="18">
<path d="M0 383C0 381.343 1.34315 380 3 380H695.899C697.556 380 698.899 381.343 698.899 383V397.105H0V383Z" fill="white"/>
</mask>
<g mask="url(#mask1_57_32)">
<rect x="292.371" y="338.092" width="114.156" height="52.1711" rx="10" fill="#2F2F47"/>
</g>
<path d="M0 397H699V397C699 400.314 696.314 403 693 403H5.99998C2.68627 403 0 400.314 0 397V397Z" fill="#393A56"/>
</g>
<defs>
<filter id="filter0_d_57_32" x="-40" y="-20" width="779" height="483" filterUnits="userSpaceOnUse" color-interpolation-filters="sRGB">
<feFlood flood-opacity="0" result="BackgroundImageFix"/>
<feColorMatrix in="SourceAlpha" type="matrix" values="0 0 0 0 0 0 0 0 0 0 0 0 0 0 0 0 0 0 127 0" result="hardAlpha"/>
<feOffset dy="20"/>
<feGaussianBlur stdDeviation="20"/>
<feColorMatrix type="matrix" values="0 0 0 0 0.421822 0 0 0 0 0.554338 0 0 0 0 0.89371 0 0 0 0.243444 0"/>
<feBlend mode="normal" in2="BackgroundImageFix" result="effect1_dropShadow_57_32"/>
<feBlend mode="normal" in="SourceGraphic" in2="effect1_dropShadow_57_32" result="shape"/>
</filter>
<linearGradient id="paint0_linear_57_32" x1="-154" y1="199.936" x2="155.517" y2="666.23" gradientUnits="userSpaceOnUse">
<stop stop-color="#FF8F71"/>
<stop offset="1" stop-color="#FF3E55"/>
</linearGradient>
</defs>
</svg>
