<svg width="328" height="347" viewBox="0 0 328 347" fill="none" xmlns="http://www.w3.org/2000/svg">
<g id="Group 18">
<g id="Group 26">
<rect id="Rectangle" x="5.54248" y="3.46399" width="141.331" height="293.053" rx="22" fill="url(#paint0_linear_0_164)"/>
<path id="Blogr" fill-rule="evenodd" clip-rule="evenodd" d="M60.317 157.652V139.252H63.8194V157.652H60.317ZM45.0317 157.652V140.14H51.4861C52.6869 140.14 53.7251 140.325 54.6007 140.695C55.4763 141.065 56.1517 141.591 56.6271 142.274C57.1024 142.956 57.34 143.758 57.34 144.678C57.34 145.517 57.1566 146.253 56.7897 146.886C56.4227 147.519 55.9057 148.016 55.2386 148.378C56.1392 148.723 56.8397 149.27 57.34 150.018C57.8404 150.767 58.0905 151.65 58.0905 152.67C58.0905 153.689 57.8237 154.569 57.29 155.309C56.7563 156.049 56.0058 156.624 55.0385 157.036C54.0712 157.447 52.9287 157.652 51.6112 157.652H45.0317ZM48.6342 143.174V147.194H51.0858C51.903 147.194 52.5326 147.026 52.9746 146.689C53.4166 146.351 53.6375 145.854 53.6375 145.196C53.6375 144.539 53.4166 144.037 52.9746 143.692C52.5326 143.346 51.903 143.174 51.0858 143.174H48.6342ZM51.4361 154.618H48.6342V150.031H51.4361C52.37 150.031 53.0913 150.228 53.6 150.623C54.1087 151.017 54.363 151.585 54.363 152.325C54.363 153.064 54.1087 153.632 53.6 154.026C53.0913 154.421 52.37 154.618 51.4361 154.618ZM70.2487 157.504C71.0826 157.849 71.9916 158.022 72.9756 158.022C73.9763 158.022 74.8977 157.849 75.7399 157.504C76.5822 157.159 77.316 156.674 77.9414 156.049C78.5668 155.424 79.0547 154.692 79.4049 153.854C79.7551 153.015 79.9303 152.103 79.9303 151.116C79.9303 150.129 79.7593 149.221 79.4174 148.39C79.0755 147.56 78.596 146.837 77.979 146.22C77.3619 145.603 76.6364 145.122 75.8025 144.777C74.9686 144.432 74.0596 144.259 73.0756 144.259C72.075 144.259 71.1535 144.432 70.3113 144.777C69.469 145.122 68.7352 145.607 68.1098 146.232C67.4844 146.857 66.9965 147.585 66.6463 148.415C66.2961 149.246 66.121 150.154 66.121 151.141C66.121 152.127 66.2919 153.04 66.6338 153.878C66.9757 154.717 67.4552 155.445 68.0723 156.061C68.6894 156.678 69.4148 157.159 70.2487 157.504ZM73.0256 154.914C73.6594 154.914 74.2264 154.75 74.7268 154.421C75.2271 154.092 75.6232 153.644 75.9151 153.077C76.2069 152.51 76.3529 151.864 76.3529 151.141C76.3529 150.417 76.2069 149.772 75.9151 149.204C75.6232 148.637 75.2271 148.189 74.7268 147.86C74.2264 147.531 73.6594 147.367 73.0256 147.367C72.3918 147.367 71.8248 147.531 71.3245 147.86C70.8241 148.189 70.428 148.637 70.1362 149.204C69.8443 149.772 69.6984 150.417 69.6984 151.141C69.6984 151.864 69.8443 152.51 70.1362 153.077C70.428 153.644 70.8241 154.092 71.3245 154.421C71.8248 154.75 72.3918 154.914 73.0256 154.914ZM85.3214 156.789C86.0469 157.118 86.8266 157.282 87.6605 157.282C88.4944 157.282 89.2574 157.114 89.9495 156.777C90.6417 156.439 91.2129 155.975 91.6632 155.383V156.444C91.6632 157.134 91.5298 157.738 91.2629 158.256C90.9961 158.774 90.625 159.177 90.1497 159.465C89.6743 159.753 89.1115 159.897 88.461 159.897C87.8606 159.897 87.3228 159.761 86.8474 159.49C86.3721 159.218 85.9843 158.844 85.6841 158.367L82.3319 159.181C82.6654 159.905 83.1241 160.538 83.7078 161.081C84.2915 161.623 84.9753 162.047 85.7592 162.351C86.5431 162.655 87.427 162.807 88.411 162.807C89.4117 162.807 90.3248 162.647 91.1503 162.326C91.9759 162.006 92.6889 161.549 93.2893 160.957C93.8897 160.365 94.3525 159.658 94.6777 158.836C95.0029 158.014 95.1655 157.101 95.1655 156.098V144.629H91.9384L91.8633 146.232C91.413 145.591 90.846 145.102 90.1622 144.765C89.4784 144.428 88.7112 144.259 87.8606 144.259C86.9934 144.259 86.1887 144.428 85.4465 144.765C84.7043 145.102 84.0539 145.566 83.4952 146.158C82.9365 146.75 82.5028 147.445 82.1943 148.242C81.8857 149.04 81.7315 149.907 81.7315 150.845C81.7315 151.749 81.8816 152.592 82.1818 153.373C82.482 154.154 82.8989 154.836 83.4326 155.42C83.9663 156.004 84.5959 156.46 85.3214 156.789ZM88.5111 154.224C89.1281 154.224 89.6743 154.072 90.1497 153.767C90.625 153.463 91.0044 153.052 91.2879 152.534C91.5714 152.016 91.7132 151.428 91.7132 150.771C91.7132 150.113 91.5714 149.525 91.2879 149.007C91.0044 148.489 90.625 148.078 90.1497 147.774C89.6743 147.47 89.1281 147.318 88.5111 147.318C87.894 147.318 87.3478 147.47 86.8724 147.774C86.3971 148.078 86.0177 148.489 85.7342 149.007C85.4507 149.525 85.3089 150.113 85.3089 150.771C85.3089 151.428 85.4507 152.016 85.7342 152.534C86.0177 153.052 86.3971 153.463 86.8724 153.767C87.3478 154.072 87.894 154.224 88.5111 154.224ZM101.195 144.629H97.9674V157.652H101.47V151.264C101.47 150.195 101.728 149.369 102.245 148.785C102.762 148.201 103.504 147.909 104.472 147.909C104.672 147.909 104.868 147.922 105.06 147.946C105.252 147.971 105.439 148.016 105.623 148.082L105.998 144.678C105.814 144.613 105.606 144.559 105.372 144.518C105.139 144.477 104.905 144.456 104.672 144.456C103.905 144.456 103.238 144.641 102.671 145.011C102.104 145.381 101.653 145.912 101.32 146.602L101.195 144.629Z" fill="white"/>
<g id="Group 9">
<g id="Fill 1" filter="url(#filter0_d_0_164)">
<path fill-rule="evenodd" clip-rule="evenodd" d="M141.637 278.431C141.637 285.765 136.222 292.085 128.89 292.085H24.335C17.003 292.085 10.6276 285.765 10.6276 278.431V20.825C10.6276 13.4903 17.003 8.128 24.335 8.128H36.4227C38.9781 8.128 39.922 7.83566 40.0767 11.0761C40.1575 12.7591 40.7748 14.0675 41.7636 15.1501C42.7517 16.2126 44.112 17.0859 45.6755 17.5756C46.7361 17.9075 47.917 18.2089 49.0433 18.2089H51.3259H102.011H104.294C105.421 18.2089 106.601 17.8388 107.662 17.5068C109.226 17.0171 110.585 16.1999 111.574 15.1569C112.563 14.0937 113.181 12.8406 113.261 11.1576C113.415 7.9179 114.36 8.128 116.916 8.128H128.89C136.222 8.128 141.637 13.4903 141.637 20.825V278.431ZM68.481 9.38783H84.8565C85.5524 9.38783 86.1167 9.81923 86.1167 10.4376C86.1167 11.0566 85.5524 11.488 84.8565 11.488H68.481C67.7844 11.488 67.2216 11.0566 67.2216 10.4376C67.2216 9.81923 67.7844 9.38783 68.481 9.38783ZM93.4651 9.7497C93.4651 10.7643 92.6422 11.5875 91.628 11.5875C90.613 11.5875 89.7909 10.7643 89.7909 9.7497C89.7909 8.73511 90.613 7.91192 91.628 7.91192C92.6422 7.91192 93.4651 8.73511 93.4651 9.7497ZM149.615 68.6154V21.6526C149.615 9.77512 139.99 0.146606 128.116 0.146606H23.6578C11.4109 0.146606 1.38976 10.1714 1.38976 22.4235V39.6319C0.693927 39.6319 0.129639 40.1956 0.129639 40.8917V49.7127C0.129639 50.4088 0.693927 50.9733 1.38976 50.9733V61.4744C0.693927 61.4744 0.129639 62.0389 0.129639 62.7349V81.6376C0.129639 82.3329 0.693927 82.8974 1.38976 82.8974V89.198C0.693927 89.198 0.129639 89.7625 0.129639 90.4579V109.36C0.129639 110.057 0.693927 110.621 1.38976 110.621V279.399C1.38976 291.689 11.4416 301.746 23.7273 301.746H128.116C139.94 301.746 149.615 292.068 149.615 280.239V103.48H150.034C150.731 103.48 151.295 102.916 151.295 102.219V69.876C151.295 69.1799 150.731 68.6154 150.034 68.6154H149.615Z" fill="#1D1D25"/>
</g>
<path id="Fill 5" fill-rule="evenodd" clip-rule="evenodd" d="M84.8566 9.38757H68.4811C67.7845 9.38757 67.2209 9.81973 67.2209 10.4381C67.2209 11.0564 67.7845 11.4878 68.4811 11.4878H84.8566C85.5525 11.4878 86.1167 11.0564 86.1167 10.4381C86.1167 9.81973 85.5525 9.38757 84.8566 9.38757Z" fill="black"/>
<path id="Fill 7" fill-rule="evenodd" clip-rule="evenodd" d="M91.6279 7.91199C90.6137 7.91199 89.7908 8.73517 89.7908 9.74976C89.7908 10.7644 90.6137 11.5875 91.6279 11.5875C92.6421 11.5875 93.465 10.7644 93.465 9.74976C93.465 8.73517 92.6421 7.91199 91.6279 7.91199Z" fill="black"/>
</g>
</g>
<g id="Group 26 Copy" clip-path="url(#clip0_0_164)">
<rect id="Rectangle_2" x="180.82" y="47.1102" width="141.331" height="293.053" rx="22" fill="url(#paint1_linear_0_164)"/>
<rect id="Rectangle_3" x="185.669" y="51.267" width="131.17" height="287.04" rx="22" fill="white"/>
<path id="Rectangle Copy" d="M185.669 59.267C185.669 54.8487 189.251 51.267 193.669 51.267H308.84C313.258 51.267 316.84 54.8487 316.84 59.267V102.028H185.669V59.267Z" fill="url(#paint2_linear_0_164)"/>
<g id="Group 4">
<g id="Rectangle_4" filter="url(#filter1_d_0_164)">
<rect x="193.527" y="83.2947" width="115.454" height="40.4878" rx="4" fill="white"/>
</g>
<g id="Rectangle Copy 2" filter="url(#filter2_d_0_164)">
<rect x="193.527" y="133.451" width="115.454" height="40.4878" rx="4" fill="white"/>
</g>
<g id="Rectangle Copy 3" filter="url(#filter3_d_0_164)">
<rect x="193.527" y="183.608" width="115.454" height="40.4878" rx="4" fill="white"/>
</g>
<g id="Rectangle Copy 4" filter="url(#filter4_d_0_164)">
<rect x="193.527" y="233.764" width="115.454" height="40.4878" rx="4" fill="white"/>
</g>
<g id="Rectangle Copy 5" filter="url(#filter5_d_0_164)">
<rect x="193.527" y="283.921" width="115.454" height="40.4878" rx="4" fill="white"/>
</g>
</g>
<path id="Blogr_2" fill-rule="evenodd" clip-rule="evenodd" d="M228.855 204.235V177.676H233.911V204.235H228.855ZM206.792 204.235V178.958H216.108C217.842 178.958 219.34 179.225 220.604 179.759C221.868 180.293 222.843 181.052 223.529 182.037C224.215 183.022 224.558 184.179 224.558 185.508C224.558 186.719 224.293 187.781 223.764 188.695C223.234 189.609 222.488 190.327 221.525 190.849C222.825 191.347 223.836 192.136 224.558 193.216C225.28 194.296 225.641 195.572 225.641 197.043C225.641 198.515 225.256 199.785 224.486 200.853C223.716 201.921 222.632 202.752 221.236 203.345C219.84 203.938 218.191 204.235 216.289 204.235H206.792ZM211.992 183.337V189.14H215.531C216.71 189.14 217.619 188.896 218.257 188.41C218.895 187.923 219.214 187.205 219.214 186.256C219.214 185.307 218.895 184.583 218.257 184.084C217.619 183.586 216.71 183.337 215.531 183.337H211.992ZM216.036 199.856H211.992V193.234H216.036C217.384 193.234 218.425 193.519 219.16 194.088C219.894 194.658 220.261 195.477 220.261 196.545C220.261 197.613 219.894 198.432 219.16 199.002C218.425 199.571 217.384 199.856 216.036 199.856ZM243.191 204.021C244.395 204.52 245.706 204.769 247.127 204.769C248.571 204.769 249.901 204.52 251.117 204.021C252.333 203.523 253.392 202.823 254.295 201.921C255.197 201.019 255.902 199.963 256.407 198.752C256.913 197.542 257.165 196.225 257.165 194.801C257.165 193.376 256.919 192.065 256.425 190.866C255.932 189.668 255.24 188.624 254.349 187.733C253.458 186.843 252.411 186.149 251.207 185.651C250.004 185.152 248.692 184.903 247.271 184.903C245.827 184.903 244.497 185.152 243.281 185.651C242.065 186.149 241.006 186.849 240.103 187.751C239.201 188.653 238.497 189.703 237.991 190.902C237.485 192.101 237.233 193.412 237.233 194.836C237.233 196.26 237.479 197.577 237.973 198.788C238.466 199.998 239.159 201.049 240.049 201.939C240.94 202.829 241.987 203.523 243.191 204.021ZM247.199 200.283C248.114 200.283 248.932 200.046 249.655 199.571C250.377 199.096 250.948 198.45 251.37 197.631C251.791 196.812 252.002 195.88 252.002 194.836C252.002 193.792 251.791 192.86 251.37 192.041C250.948 191.222 250.377 190.576 249.655 190.101C248.932 189.626 248.114 189.389 247.199 189.389C246.284 189.389 245.466 189.626 244.744 190.101C244.021 190.576 243.45 191.222 243.028 192.041C242.607 192.86 242.396 193.792 242.396 194.836C242.396 195.88 242.607 196.812 243.028 197.631C243.45 198.45 244.021 199.096 244.744 199.571C245.466 200.046 246.284 200.283 247.199 200.283ZM264.947 202.989C265.994 203.464 267.12 203.701 268.323 203.701C269.527 203.701 270.628 203.458 271.627 202.971C272.626 202.485 273.451 201.814 274.101 200.96V202.491C274.101 203.487 273.908 204.36 273.523 205.107C273.138 205.855 272.602 206.436 271.916 206.852C271.23 207.267 270.418 207.475 269.479 207.475C268.612 207.475 267.836 207.279 267.15 206.887C266.464 206.496 265.904 205.956 265.471 205.268L260.632 206.442C261.113 207.487 261.775 208.401 262.618 209.184C263.461 209.967 264.448 210.578 265.579 211.017C266.71 211.456 267.986 211.676 269.407 211.676C270.851 211.676 272.169 211.444 273.361 210.982C274.552 210.519 275.581 209.86 276.448 209.006C277.315 208.151 277.983 207.131 278.452 205.944C278.922 204.757 279.156 203.44 279.156 201.992V185.437H274.498L274.39 187.751C273.74 186.826 272.921 186.12 271.934 185.633C270.947 185.146 269.84 184.903 268.612 184.903C267.36 184.903 266.199 185.146 265.128 185.633C264.056 186.12 263.118 186.79 262.311 187.644C261.505 188.499 260.879 189.502 260.433 190.653C259.988 191.804 259.765 193.056 259.765 194.409C259.765 195.714 259.982 196.931 260.415 198.058C260.849 199.186 261.45 200.17 262.221 201.013C262.991 201.856 263.9 202.514 264.947 202.989ZM269.551 199.286C270.442 199.286 271.23 199.067 271.916 198.628C272.602 198.189 273.15 197.595 273.559 196.848C273.969 196.1 274.173 195.251 274.173 194.302C274.173 193.353 273.969 192.504 273.559 191.757C273.15 191.009 272.602 190.416 271.916 189.976C271.23 189.537 270.442 189.318 269.551 189.318C268.66 189.318 267.872 189.537 267.186 189.976C266.5 190.416 265.952 191.009 265.543 191.757C265.134 192.504 264.929 193.353 264.929 194.302C264.929 195.251 265.134 196.1 265.543 196.848C265.952 197.595 266.5 198.189 267.186 198.628C267.872 199.067 268.66 199.286 269.551 199.286ZM287.859 185.437H283.201V204.235H288.256V195.014C288.256 193.471 288.629 192.279 289.375 191.436C290.122 190.594 291.193 190.172 292.589 190.172C292.878 190.172 293.161 190.19 293.438 190.226C293.715 190.261 293.986 190.327 294.25 190.421L294.792 185.508C294.527 185.413 294.226 185.336 293.889 185.277C293.552 185.218 293.215 185.188 292.878 185.188C291.771 185.188 290.808 185.455 289.989 185.989C289.171 186.523 288.521 187.288 288.039 188.285L287.859 185.437Z" fill="white"/>
<g id="Group 9_2">
<g id="Fill 1_2" filter="url(#filter6_d_0_164)">
<path fill-rule="evenodd" clip-rule="evenodd" d="M316.914 322.077C316.914 329.412 311.5 335.731 304.168 335.731H199.612C192.28 335.731 185.905 329.412 185.905 322.077V64.4712C185.905 57.1365 192.28 51.7742 199.612 51.7742H211.7C214.255 51.7742 215.199 51.4819 215.354 54.7223C215.435 56.4053 216.052 57.7137 217.041 58.7964C218.029 59.8588 219.389 60.7321 220.953 61.2218C222.013 61.5538 223.194 61.8551 224.32 61.8551H226.603H277.288H279.571C280.698 61.8551 281.879 61.485 282.939 61.153C284.503 60.6633 285.862 59.8461 286.851 58.8031C287.841 57.7399 288.458 56.4868 288.538 54.8038C288.692 51.5641 289.637 51.7742 292.193 51.7742H304.168C311.5 51.7742 316.914 57.1365 316.914 64.4712V322.077ZM243.758 53.0341H260.134C260.829 53.0341 261.394 53.4655 261.394 54.0838C261.394 54.7029 260.829 55.1343 260.134 55.1343H243.758C243.062 55.1343 242.499 54.7029 242.499 54.0838C242.499 53.4655 243.062 53.0341 243.758 53.0341ZM268.742 53.3959C268.742 54.4105 267.919 55.2337 266.905 55.2337C265.89 55.2337 265.068 54.4105 265.068 53.3959C265.068 52.3813 265.89 51.5582 266.905 51.5582C267.919 51.5582 268.742 52.3813 268.742 53.3959ZM324.892 112.262V65.2989C324.892 53.4214 315.267 43.7928 303.393 43.7928H198.935C186.688 43.7928 176.667 53.8176 176.667 66.0697V83.2781C175.971 83.2781 175.407 83.8419 175.407 84.538V93.359C175.407 94.0551 175.971 94.6196 176.667 94.6196V105.121C175.971 105.121 175.407 105.685 175.407 106.381V125.284C175.407 125.979 175.971 126.544 176.667 126.544V132.844C175.971 132.844 175.407 133.409 175.407 134.104V153.007C175.407 153.703 175.971 154.267 176.667 154.267V323.045C176.667 335.335 186.719 345.392 199.004 345.392H303.393C315.217 345.392 324.892 335.714 324.892 323.886V147.126H325.312C326.008 147.126 326.572 146.562 326.572 145.866V113.522C326.572 112.826 326.008 112.262 325.312 112.262H324.892Z" fill="#1D1D25"/>
</g>
<path id="Fill 5_2" fill-rule="evenodd" clip-rule="evenodd" d="M260.134 53.0338H243.759C243.062 53.0338 242.499 53.466 242.499 54.0843C242.499 54.7026 243.062 55.134 243.759 55.134H260.134C260.83 55.134 261.394 54.7026 261.394 54.0843C261.394 53.466 260.83 53.0338 260.134 53.0338Z" fill="black"/>
<path id="Fill 7_2" fill-rule="evenodd" clip-rule="evenodd" d="M266.905 51.5582C265.891 51.5582 265.068 52.3814 265.068 53.396C265.068 54.4106 265.891 55.2338 266.905 55.2338C267.919 55.2338 268.742 54.4106 268.742 53.396C268.742 52.3814 267.919 51.5582 266.905 51.5582Z" fill="black"/>
</g>
</g>
</g>
<defs>
<filter id="filter0_d_0_164" x="-39.8704" y="-19.8534" width="231.165" height="381.599" filterUnits="userSpaceOnUse" color-interpolation-filters="sRGB">
<feFlood flood-opacity="0" result="BackgroundImageFix"/>
<feColorMatrix in="SourceAlpha" type="matrix" values="0 0 0 0 0 0 0 0 0 0 0 0 0 0 0 0 0 0 127 0" result="hardAlpha"/>
<feOffset dy="20"/>
<feGaussianBlur stdDeviation="20"/>
<feColorMatrix type="matrix" values="0 0 0 0 0.421822 0 0 0 0 0.554338 0 0 0 0 0.89371 0 0 0 0.243444 0"/>
<feBlend mode="normal" in2="BackgroundImageFix" result="effect1_dropShadow_0_164"/>
<feBlend mode="normal" in="SourceGraphic" in2="effect1_dropShadow_0_164" result="shape"/>
</filter>
<filter id="filter1_d_0_164" x="173.527" y="73.2947" width="155.454" height="80.4878" filterUnits="userSpaceOnUse" color-interpolation-filters="sRGB">
<feFlood flood-opacity="0" result="BackgroundImageFix"/>
<feColorMatrix in="SourceAlpha" type="matrix" values="0 0 0 0 0 0 0 0 0 0 0 0 0 0 0 0 0 0 127 0" result="hardAlpha"/>
<feOffset dy="10"/>
<feGaussianBlur stdDeviation="10"/>
<feColorMatrix type="matrix" values="0 0 0 0 0.421822 0 0 0 0 0.554338 0 0 0 0 0.89371 0 0 0 0.243444 0"/>
<feBlend mode="normal" in2="BackgroundImageFix" result="effect1_dropShadow_0_164"/>
<feBlend mode="normal" in="SourceGraphic" in2="effect1_dropShadow_0_164" result="shape"/>
</filter>
<filter id="filter2_d_0_164" x="173.527" y="123.451" width="155.454" height="80.4878" filterUnits="userSpaceOnUse" color-interpolation-filters="sRGB">
<feFlood flood-opacity="0" result="BackgroundImageFix"/>
<feColorMatrix in="SourceAlpha" type="matrix" values="0 0 0 0 0 0 0 0 0 0 0 0 0 0 0 0 0 0 127 0" result="hardAlpha"/>
<feOffset dy="10"/>
<feGaussianBlur stdDeviation="10"/>
<feColorMatrix type="matrix" values="0 0 0 0 0.421822 0 0 0 0 0.554338 0 0 0 0 0.89371 0 0 0 0.243444 0"/>
<feBlend mode="normal" in2="BackgroundImageFix" result="effect1_dropShadow_0_164"/>
<feBlend mode="normal" in="SourceGraphic" in2="effect1_dropShadow_0_164" result="shape"/>
</filter>
<filter id="filter3_d_0_164" x="173.527" y="173.608" width="155.454" height="80.4878" filterUnits="userSpaceOnUse" color-interpolation-filters="sRGB">
<feFlood flood-opacity="0" result="BackgroundImageFix"/>
<feColorMatrix in="SourceAlpha" type="matrix" values="0 0 0 0 0 0 0 0 0 0 0 0 0 0 0 0 0 0 127 0" result="hardAlpha"/>
<feOffset dy="10"/>
<feGaussianBlur stdDeviation="10"/>
<feColorMatrix type="matrix" values="0 0 0 0 0.421822 0 0 0 0 0.554338 0 0 0 0 0.89371 0 0 0 0.243444 0"/>
<feBlend mode="normal" in2="BackgroundImageFix" result="effect1_dropShadow_0_164"/>
<feBlend mode="normal" in="SourceGraphic" in2="effect1_dropShadow_0_164" result="shape"/>
</filter>
<filter id="filter4_d_0_164" x="173.527" y="223.764" width="155.454" height="80.4878" filterUnits="userSpaceOnUse" color-interpolation-filters="sRGB">
<feFlood flood-opacity="0" result="BackgroundImageFix"/>
<feColorMatrix in="SourceAlpha" type="matrix" values="0 0 0 0 0 0 0 0 0 0 0 0 0 0 0 0 0 0 127 0" result="hardAlpha"/>
<feOffset dy="10"/>
<feGaussianBlur stdDeviation="10"/>
<feColorMatrix type="matrix" values="0 0 0 0 0.421822 0 0 0 0 0.554338 0 0 0 0 0.89371 0 0 0 0.243444 0"/>
<feBlend mode="normal" in2="BackgroundImageFix" result="effect1_dropShadow_0_164"/>
<feBlend mode="normal" in="SourceGraphic" in2="effect1_dropShadow_0_164" result="shape"/>
</filter>
<filter id="filter5_d_0_164" x="173.527" y="273.921" width="155.454" height="80.4878" filterUnits="userSpaceOnUse" color-interpolation-filters="sRGB">
<feFlood flood-opacity="0" result="BackgroundImageFix"/>
<feColorMatrix in="SourceAlpha" type="matrix" values="0 0 0 0 0 0 0 0 0 0 0 0 0 0 0 0 0 0 127 0" result="hardAlpha"/>
<feOffset dy="10"/>
<feGaussianBlur stdDeviation="10"/>
<feColorMatrix type="matrix" values="0 0 0 0 0.421822 0 0 0 0 0.554338 0 0 0 0 0.89371 0 0 0 0.243444 0"/>
<feBlend mode="normal" in2="BackgroundImageFix" result="effect1_dropShadow_0_164"/>
<feBlend mode="normal" in="SourceGraphic" in2="effect1_dropShadow_0_164" result="shape"/>
</filter>
<filter id="filter6_d_0_164" x="135.407" y="23.7928" width="231.165" height="381.599" filterUnits="userSpaceOnUse" color-interpolation-filters="sRGB">
<feFlood flood-opacity="0" result="BackgroundImageFix"/>
<feColorMatrix in="SourceAlpha" type="matrix" values="0 0 0 0 0 0 0 0 0 0 0 0 0 0 0 0 0 0 127 0" result="hardAlpha"/>
<feOffset dy="20"/>
<feGaussianBlur stdDeviation="20"/>
<feColorMatrix type="matrix" values="0 0 0 0 0.421822 0 0 0 0 0.554338 0 0 0 0 0.89371 0 0 0 0.243444 0"/>
<feBlend mode="normal" in2="BackgroundImageFix" result="effect1_dropShadow_0_164"/>
<feBlend mode="normal" in="SourceGraphic" in2="effect1_dropShadow_0_164" result="shape"/>
</filter>
<linearGradient id="paint0_linear_0_164" x1="-65.1228" y1="149.99" x2="164.201" y2="260.586" gradientUnits="userSpaceOnUse">
<stop stop-color="#FF8F71"/>
<stop offset="1" stop-color="#FF3E55"/>
</linearGradient>
<linearGradient id="paint1_linear_0_164" x1="110.155" y1="193.637" x2="339.479" y2="304.233" gradientUnits="userSpaceOnUse">
<stop stop-color="#FF8F71"/>
<stop offset="1" stop-color="#FF3E55"/>
</linearGradient>
<linearGradient id="paint2_linear_0_164" x1="120.084" y1="76.6474" x2="154.254" y2="164.946" gradientUnits="userSpaceOnUse">
<stop stop-color="#FF8F71"/>
<stop offset="1" stop-color="#FF3E55"/>
</linearGradient>
<clipPath id="clip0_0_164">
<rect width="152" height="303" fill="white" transform="translate(175.277 43.6462)"/>
</clipPath>
</defs>
</svg>
